/* XPM */
static char * clippy_xpm[] = {
"64 64 296 2",
"  	c #1B5E12",
". 	c #738973",
"+ 	c #899888",
"@ 	c #7E8E7E",
"# 	c #6D806C",
"$ 	c #6D816E",
"% 	c #718270",
"& 	c #677D67",
"* 	c #1A5A11",
"= 	c #17540F",
"- 	c #869089",
"; 	c #B0B3B1",
"> 	c #A9AEAA",
", 	c #929894",
"' 	c #959B96",
") 	c #979D99",
"! 	c #8F9890",
"~ 	c #557454",
"{ 	c #577556",
"] 	c #3C6839",
"^ 	c #13490C",
"/ 	c #000000",
"( 	c #0E3B08",
"_ 	c #537252",
": 	c #A9ABAC",
"< 	c #ACAEAE",
"[ 	c #728573",
"} 	c #041C02",
"| 	c #0F3D08",
"1 	c #195911",
"2 	c #A0A8A6",
"3 	c #6F8272",
"4 	c #1A5B11",
"5 	c #12460B",
"6 	c #031702",
"7 	c #021401",
"8 	c #104009",
"9 	c #195910",
"0 	c #0E3C08",
"a 	c #17520F",
"b 	c #4A704A",
"c 	c #93A098",
"d 	c #B2B8B9",
"e 	c #7B8E7F",
"f 	c #082D05",
"g 	c #062403",
"h 	c #195810",
"i 	c #93A292",
"j 	c #ACB6AB",
"k 	c #B7BAAF",
"l 	c #D4D2D3",
"m 	c #D3D2D1",
"n 	c #8D9A8B",
"o 	c #547159",
"p 	c #41594F",
"q 	c #12470B",
"r 	c #185610",
"s 	c #25611F",
"t 	c #DBDFDA",
"u 	c #FFFFFF",
"v 	c #FDF4F1",
"w 	c #FCF3F1",
"x 	c #A8AFA0",
"y 	c #205F18",
"z 	c #7C8F80",
"A 	c #A8B0AE",
"B 	c #082B04",
"C 	c #134A0C",
"D 	c #FFF7F5",
"E 	c #C6C6BC",
"F 	c #7E927D",
"G 	c #FDF5F1",
"H 	c #FFF6F4",
"I 	c #FFF8F6",
"J 	c #E8E5E0",
"K 	c #71896E",
"L 	c #E7EAE6",
"M 	c #D1CECD",
"N 	c #F1E8E6",
"O 	c #F3EDEA",
"P 	c #CDCAC5",
"Q 	c #ABB5A8",
"R 	c #ECEEEC",
"S 	c #FBFBFB",
"T 	c #E5DFDB",
"U 	c #71866B",
"V 	c #798C73",
"W 	c #FBF3F1",
"X 	c #B1ACAA",
"Y 	c #CEC8C6",
"Z 	c #F4ECEA",
"` 	c #E2D9D7",
" .	c #B8BEB3",
"..	c #E7EAE7",
"+.	c #494646",
"@.	c #4D4E4B",
"#.	c #BEB7B7",
"$.	c #FFFFFD",
"%.	c #CCCBC2",
"&.	c #7C8C75",
"*.	c #75886E",
"=.	c #F1E9E7",
"-.	c #5F5A5C",
";.	c #ABA5A2",
">.	c #EEE7E5",
",.	c #E6E3DE",
"'.	c #FFFFFE",
").	c #EFEAE8",
"!.	c #EEE8E5",
"~.	c #EFE8E6",
"{.	c #9BA394",
"].	c #75886F",
"^.	c #AEA7A8",
"/.	c #D1CBC9",
"(.	c #F8EFED",
"_.	c #EEE5E3",
":.	c #E0D9D7",
"<.	c #D7D3CE",
"[.	c #FBF4F2",
"}.	c #DFD6D4",
"|.	c #FAF1EF",
"1.	c #EBE3E0",
"2.	c #9BA293",
"3.	c #F5EDEA",
"4.	c #FFFFFC",
"5.	c #FBF4F1",
"6.	c #F9F1EF",
"7.	c #EDE6E4",
"8.	c #B8B8AF",
"9.	c #F8F1EF",
"0.	c #EAE2E0",
"a.	c #99A293",
"b.	c #919D89",
"c.	c #DFDAD5",
"d.	c #F5ECEA",
"e.	c #EFE6E4",
"f.	c #B8BAAF",
"g.	c #6C8266",
"h.	c #7F8F78",
"i.	c #CCCBC3",
"j.	c #FDF6F3",
"k.	c #B4AEAF",
"l.	c #BAB4B1",
"m.	c #D7D1CF",
"n.	c #F9F1EE",
"o.	c #EEE7E4",
"p.	c #A4A99C",
"q.	c #5B7856",
"r.	c #90938A",
"s.	c #B4B1AC",
"t.	c #BFBFB6",
"u.	c #BEBDB4",
"v.	c #BCBCB3",
"w.	c #8D9A86",
"x.	c #D0CDC6",
"y.	c #FFF8F5",
"z.	c #F7EFEC",
"A.	c #EDE6E2",
"B.	c #BBBCB4",
"C.	c #5C7856",
"D.	c #0B3406",
"E.	c #687F62",
"F.	c #D6D1CC",
"G.	c #D8D3CE",
"H.	c #D4D0CD",
"I.	c #D4CFCC",
"J.	c #C5C3BC",
"K.	c #385447",
"L.	c #315541",
"M.	c #4C6055",
"N.	c #455D4C",
"O.	c #7E8F81",
"P.	c #7B8C80",
"Q.	c #39514B",
"R.	c #2D4545",
"S.	c #11482E",
"T.	c #58685D",
"U.	c #4F6453",
"V.	c #869487",
"W.	c #829184",
"X.	c #5F7A60",
"Y.	c #556061",
"Z.	c #496051",
"`.	c #315F35",
" +	c #727C75",
".+	c #69776A",
"++	c #AAB0AC",
"@+	c #7B8C7C",
"#+	c #7E8383",
"$+	c #556F58",
"%+	c #8D948E",
"&+	c #818D83",
"*+	c #ACB0AC",
"=+	c #7D8D7D",
"-+	c #A4A5A7",
";+	c #8C938C",
">+	c #818C81",
",+	c #7D8E7E",
"'+	c #A5A7A7",
")+	c #6F816E",
"!+	c #8A928A",
"~+	c #7F8B80",
"{+	c #7E8D7D",
"]+	c #A6A7A7",
"^+	c #888F87",
"/+	c #7E897E",
"(+	c #7D8D7C",
"_+	c #A4A4A4",
":+	c #6D806D",
"<+	c #AAAEAA",
"[+	c #7C8C7C",
"}+	c #A3A3A3",
"|+	c #6C7F6B",
"1+	c #A2A8A2",
"2+	c #97A097",
"3+	c #A9ADA9",
"4+	c #A0A0A0",
"5+	c #6B7E6A",
"6+	c #A1A8A1",
"7+	c #969F96",
"8+	c #C1C1C1",
"9+	c #819080",
"0+	c #A0A69F",
"a+	c #959D94",
"b+	c #A8ABA9",
"c+	c #7B8B7A",
"d+	c #BFBFBF",
"e+	c #80907F",
"f+	c #697A68",
"g+	c #788377",
"h+	c #677A66",
"i+	c #9FA59F",
"j+	c #A8ABA7",
"k+	c #BEBEBE",
"l+	c #7F8E7E",
"m+	c #828882",
"n+	c #828982",
"o+	c #667965",
"p+	c #9DA39D",
"q+	c #939C93",
"r+	c #BDBDBD",
"s+	c #2B6226",
"t+	c #537251",
"u+	c #7B837A",
"v+	c #597258",
"w+	c #BCBCBC",
"x+	c #51714F",
"y+	c #ABABAB",
"z+	c #567454",
"A+	c #AEB0AE",
"B+	c #869385",
"C+	c #547352",
"D+	c #A8ACA8",
"E+	c #A9A9A9",
"F+	c #70846F",
"G+	c #A3A8A3",
"H+	c #ABAEAB",
"I+	c #909A90",
"J+	c #557453",
"K+	c #527150",
"L+	c #ACACAC",
"M+	c #577455",
"N+	c #496B46",
"O+	c #959595",
"P+	c #4C6D4A",
"Q+	c #7D8C7C",
"R+	c #8A9589",
"S+	c #456942",
"T+	c #8F8F8F",
"U+	c #486B46",
"V+	c #A6AAA6",
"W+	c #416B3E",
"X+	c #6B7F6A",
"Y+	c #8C8C8C",
"Z+	c #486A46",
"`+	c #829181",
" @	c #B8B8B8",
".@	c #898989",
"+@	c #476944",
"@@	c #B0B4B0",
"#@	c #1E5E16",
"$@	c #B1B3B1",
"%@	c #939C92",
"&@	c #486D45",
"*@	c #AEB1AE",
"=@	c #A8ACA7",
"-@	c #758874",
";@	c #627C61",
">@	c #9CA29B",
",@	c #899589",
"'@	c #BABABA",
")@	c #A5A9A4",
"!@	c #788A77",
"~@	c #587656",
"{@	c #B0B1AF",
"]@	c #768875",
"                                                                                                                                ",
"                                                                                                                                ",
"                                                                                                                                ",
"                                                                                                                                ",
"                                                                                                                                ",
"                                                                                                                                ",
"                                                                                                                                ",
"                                                                                                                                ",
"                                                    . + @ # $ % &                                                               ",
"                                            * = = = - ; > , ' ) ! ~ { ]                                                         ",
"                                            ^ / / / / (         _ : < [                                                         ",
"                                        } } | 1 1 2 3 4       5 6 / / 7 8                                                       ",
"                                    9 0 ^ ^ a b c d e         = ^ ^ ^ f g 0 0 h                                                 ",
"                                    9 0   i j k l m n                 o p 6 0 q r                                               ",
"                                        s t u v v w x y           s s s z A   B C                                               ",
"                                        u u u u u u D E         F u G H I J                                                     ",
"                                    K L u u M / / N u O P     Q R u u u u S T U                                                 ",
"                                    V W u X / / / / Y Z `    ...u u +.@.#.u $.%.&.                                              ",
"                                    *.=.u -./ / / / ;.>.`   ,.'.u )./ / / !.u ~.{.                                              ",
"                                    ].=.u u ^./ / /.(._.:.  <.[.}./ / / / / |.1.2.                                              ",
"                                        3.4.$.[.5.6.7.8.    <.[.'.u / / / 5.9.0.a.                                              ",
"                                        b.c.d.N N e.f.g.    h.i.j.u k.l.m.n.o.p.q.                                              ",
"                                          r.s.t.u.v.&.        w.x.y.3.(.z.A.B.C.                                                ",
"                                          D.0                   E.F.G.H.I.J.                                                    ",
"                                          K.L.                        ( 0                                                       ",
"                                          M.N.      O.P.            Q.R.S.                                                      ",
"                                          T.U.    V.W.X.            Y.Z.`.                                                      ",
"                                           +.+    ++@+              #+$+                                                        ",
"                                          %+&+    *+=+              -+$                                                         ",
"                                          ;+>+    *+,+              '+)+                                                        ",
"                                          !+~+    *+{+              ]+)+                                                        ",
"                                          ^+/+    *+(+              _+:+                                                        ",
"                                          ;+>+    <+[+              }+|+                                                        ",
"                                          1+2+    3+[+              4+5+                                                        ",
"                                          6+7+    3+[+              8+9+                                                        ",
"                                          0+a+    b+c+              d+e+      f+g+h+                                            ",
"                                          i+a+    j+c+              k+l+      m+n+o+                                            ",
"                                          p+q+    j+c+              r+l+  s+t+u+v+                                              ",
"                                          p+q+    j+c+              w+l+  x+y+z+                                                ",
"                                          p+q+    j+A+B+        C+D+w+l+  x+E+z+                                                ",
"                                          p+q+    F+G+H+q+q+q+a+I+[+@ J+  K+y+z+                                                ",
"                                          p+q+      {+p+p+p+p+i+I+        K+y+z+                                                ",
"                                          p+q+                            K+L+M+                                                ",
"                                          p+q+                            t+L+M+                                                ",
"                                          p+q+                            N+O+P+                                                ",
"                                          Q+R+F+                          S+T+U+                                                ",
"                                            c+V+                        W+X+Y+Z+                                                ",
"                                            c+V+                        `+ @.@+@                                                ",
"                                            c+V+                      2+d+@@#@                                                  ",
"                                            c+$@%@&@                a+*@=@-@                                                    ",
"                                            ;@>@ @,@c+c+c+c+c+c+c+c+'@)@!@                                                      ",
"                                              ~@{@{@{@{@{@{@{@{@{@{@$@]@                                                        ",
"                                                                                                                                ",
"                                                                                                                                ",
"                                                                                                                                ",
"                                                                                                                                ",
"                                                                                                                                ",
"                                                                                                                                ",
"                                                                                                                                ",
"                                                                                                                                ",
"                                                                                                                                ",
"                                                                                                                                ",
"                                                                                                                                ",
"                                                                                                                                "};
