/* XPM */
static char * diamond_xpm[] = {
"64 64 221 2",
"  	c #1B5E12",
". 	c #215F19",
"+ 	c #1A5C11",
"@ 	c #1A5B11",
"# 	c #1B5D12",
"$ 	c #0D3807",
"% 	c #000000",
"& 	c #154E0D",
"* 	c #2E5F29",
"= 	c #215F1A",
"- 	c #33622F",
"; 	c #11340D",
"> 	c #0F0F0F",
", 	c #050505",
"' 	c #565656",
") 	c #21541C",
"! 	c #3A6337",
"~ 	c #4E604D",
"{ 	c #222222",
"] 	c #6F6F6F",
"^ 	c #535353",
"/ 	c #232323",
"( 	c #030303",
"_ 	c #5C5C5C",
": 	c #185310",
"< 	c #41663F",
"[ 	c #3B6438",
"} 	c #173714",
"| 	c #303030",
"1 	c #CACACA",
"2 	c #FFFFFF",
"3 	c #B5B5B5",
"4 	c #555555",
"5 	c #272727",
"6 	c #535753",
"7 	c #1A5113",
"8 	c #446742",
"9 	c #3F583E",
"0 	c #A5A5A5",
"a 	c #B1B1B1",
"b 	c #575757",
"c 	c #0E0E0E",
"d 	c #454D45",
"e 	c #1F4F1A",
"f 	c #13490C",
"g 	c #16520E",
"h 	c #40663E",
"i 	c #203A1E",
"j 	c #616161",
"k 	c #E0E0E0",
"l 	c #AEAEAE",
"m 	c #969696",
"n 	c #919191",
"o 	c #4E4E4E",
"p 	c #5F5F5F",
"q 	c #282828",
"r 	c #161616",
"s 	c #384537",
"t 	c #275024",
"u 	c #436741",
"v 	c #000E0E",
"w 	c #007878",
"x 	c #004D4D",
"y 	c #0E3C08",
"z 	c #325330",
"A 	c #1F1F1F",
"B 	c #004646",
"C 	c #002A2A",
"D 	c #9F9F9F",
"E 	c #353535",
"F 	c #006262",
"G 	c #007070",
"H 	c #1E1E1E",
"I 	c #F3F3F3",
"J 	c #ABABAB",
"K 	c #666666",
"L 	c #262626",
"M 	c #1B1B1B",
"N 	c #2B3F2A",
"O 	c #1A5C12",
"P 	c #104417",
"Q 	c #008F8F",
"R 	c #00FFFF",
"S 	c #00D7D7",
"T 	c #075F56",
"U 	c #2C4E2A",
"V 	c #004747",
"W 	c #00CDCD",
"X 	c #005A5A",
"Y 	c #878787",
"Z 	c #949494",
"` 	c #177A7A",
" .	c #00EFEF",
"..	c #007F7F",
"+.	c #47B8B8",
"@.	c #959595",
"#.	c #EDEDED",
"$.	c #ADADAD",
"%.	c #6B6B6B",
"&.	c #195810",
"*.	c #002D2D",
"=.	c #00B4B4",
"-.	c #008787",
";.	c #F0F0F0",
">.	c #2D2D2D",
",.	c #00E1E1",
"'.	c #000F0F",
").	c #AAAAAA",
"!.	c #E9E9E9",
"~.	c #6E6E6E",
"{.	c #202E1F",
"].	c #00D4D4",
"^.	c #727272",
"/.	c #0F9797",
"(.	c #4D5353",
"_.	c #C3C3C3",
":.	c #E7E7E7",
"<.	c #B7B7B7",
"[.	c #181818",
"}.	c #0D0D0D",
"|.	c #00D2D2",
"1.	c #001E1E",
"2.	c #A2A2A2",
"3.	c #E4E4E4",
"4.	c #E6E6E6",
"5.	c #BFBFBF",
"6.	c #005050",
"7.	c #008383",
"8.	c #00A3A3",
"9.	c #0A9F9F",
"0.	c #005353",
"a.	c #565D5D",
"b.	c #BABABA",
"c.	c #EBEBEB",
"d.	c #A9A9A9",
"e.	c #D9D9D9",
"f.	c #5D8080",
"g.	c #528C8C",
"h.	c #9D9D9D",
"i.	c #D1D1D1",
"j.	c #006969",
"k.	c #00C3C3",
"l.	c #FDFDFD",
"m.	c #DEDEDE",
"n.	c #A8A8A8",
"o.	c #8F708F",
"p.	c #5260A4",
"q.	c #09E8E8",
"r.	c #16E8E8",
"s.	c #5ABDBD",
"t.	c #D3D3D3",
"u.	c #004F4F",
"v.	c #009090",
"w.	c #009E9E",
"x.	c #004B4B",
"y.	c #5D6262",
"z.	c #B6B6B6",
"A.	c #F4F4F4",
"B.	c #F2F2F2",
"C.	c #E1E1E1",
"D.	c #805A80",
"E.	c #525AAC",
"F.	c #00D0D0",
"G.	c #358E8E",
"H.	c #B4C2C2",
"I.	c #F8F8F8",
"J.	c #00FAFA",
"K.	c #00F5F5",
"L.	c #009696",
"M.	c #003C3C",
"N.	c #9B9B9B",
"O.	c #FBFBFB",
"P.	c #A169A1",
"Q.	c #F705F7",
"R.	c #CA05CF",
"S.	c #466EB5",
"T.	c #3CBFBF",
"U.	c #00A5A5",
"V.	c #343434",
"W.	c #434343",
"X.	c #646464",
"Y.	c #F7F7F7",
"Z.	c #8E8E8E",
"`.	c #A861A8",
" +	c #CD07CD",
".+	c #803980",
"++	c #BBBBBB",
"@+	c #FAFAFA",
"#+	c #002727",
"$+	c #059696",
"%+	c #404040",
"&+	c #474747",
"*+	c #007777",
"=+	c #0A4C4C",
"-+	c #C6C6C6",
";+	c #FEFEFE",
">+	c #9A9A9A",
",+	c #070707",
"'+	c #212121",
")+	c #7B7B7B",
"!+	c #6C6C6C",
"~+	c #B3B3B3",
"{+	c #E3E3E3",
"]+	c #E8E8E8",
"^+	c #345A31",
"/+	c #CECECE",
"(+	c #E2E2E2",
"_+	c #D8D8D8",
":+	c #A3A3A3",
"<+	c #A1A1A1",
"[+	c #C0C0C0",
"}+	c #225E1C",
"|+	c #4F4F4F",
"1+	c #F9F9F9",
"2+	c #ACACAC",
"3+	c #D2D2D2",
"4+	c #D7D7D7",
"5+	c #C4C4C4",
"6+	c #B4B4B4",
"7+	c #CBCBCB",
"8+	c #D0D0D0",
"                                                                                                                                ",
"                                                                                                                                ",
"                                                                                                                                ",
"                                                                                                                                ",
"                                                                                                                                ",
"                                                                                                                                ",
"                                                                                                                                ",
"                                                                                                                                ",
"                                                                                                                                ",
"                                                                                                                                ",
"                                                                                                                                ",
"                                                                                                                                ",
"                                                                                                                                ",
"                                                                                                                                ",
"                                                                                                                                ",
"                                                                                                                                ",
"                                  . . . . . . . . . . + @ # . . . . . . . . . . . . . . . . . . .                               ",
"                                  . . . . . . . . . . $ % & * = . . . . . . . . . . . . . . . . .                               ",
"                                  . . . . . . . . . - ; > , ' ) ! . . . . . . . . . . . . . . . .                               ",
"                                  . . . . . . . . . ~ { ] ^ / ( _ : < . . . . . . . . . . . . . .                               ",
"                                  . . . . . . . . [ } | 1 2 3 4 5 , 6 7 8 . . . . . . . . . . . .                               ",
"                                  . . . . . . . . 9 { 0 2 2 2 2 a b 5 c d e 8 . . . . . . . . . .                               ",
"                                  # f f f f f g h i % j k l m m m n o p q r s t u . . . . . . . .                               ",
"                                  @ v w w w x y z A B C D E F w w G H I J K L M N z h . . . . . .                               ",
"                                  O P Q R S T U N V W X Y Z `  ...+.@.2 2 #.$.%./ A i 9 [ . . . .                               ",
"                                  . &.*.R =.$ t M -.R X Y ;.>.,.'.).2 2 2 2 2 !.a ~.A { } ~ - . .                               ",
"                                  . &.*.R =.{.s x ].R X Y ^./.F (._.2 2 2 2 2 2 2 :.<.] [.{ ; $ +                               ",
"                                  . &.*.R =.}.r w R R X Y >.|.1.2._.2 2 2 3.0 1 2 2 2 4.5.] > % @                               ",
"                                  . &.*.R =.% 6.7.8.R X A 9.0.a.b.c.d.2 2 e.f.g.h.i.2 2 2 ^ , & #                               ",
"                                  . &.*.R =.% j.-.-.R X % k.*.D 5.l.m.n.4.o.p.q.r.s.t.2 3 / ' * .                               ",
"                                  . &.*.R =.u.v.'.-.R X w.x.y.z.A.@.l.B.C.D.E.F.G.H.I.2 4 ( ) = .                               ",
"                                  . &.*.R J.K.L.% -.R K.J.M.N.5.O.;.@.!.P.Q.R.S.T._.2 a 5 _ ! . .                               ",
"                                  . &.*.R R U.V.W.-.R R x.X.3 Y.Z.Y.I.!.Y `. +.+++2 @+b , : . . .                               ",
"                                  . &.#+,.,.$+%+&+*+,.,.=+m -+c.;+Z.>+;.I m.Z.Z._.2 J 5 6 < . . .                               ",
"                                  . &.% ,+'+&+0 )+'+'+'+!+~+I 2.{+!.B.m d.]+;.2 2 I p c 7 . . . .                               ",
"                                  = ^+, &+/+/+(+]+/+/+/+/+<._+O.:+<+C.4.]+h.[+2 2 J q d 8 . . . .                               ",
"                                  }+|+> ] 5.4.2 2 2 2 2 2 b.0 t.e.1+0 l e.3.2 2 #.K r e . . . . .                               ",
"                                  + $ ; { [.] <.:.2 2 2 2 2 2 z.2+3+4+;.2+5+2 2 $.L s 8 . . . . .                               ",
"                                  . . - ~ } { A ~.a !.2 2 2 2 2 2 6+z.1 4+2 2 !.%.M t . . . . . .                               ",
"                                  . . . . [ 9 i A / %.$.#.2 2 1 _.2 Y.++7+2 2 a / N u . . . . . .                               ",
"                                  . . . . . . h z N M L K J I 1 _.++_.2 2 2 :.~.A z . . . . . . .                               ",
"                                  . . . . . . . . u t s r q p J @+1 8+2 2 2 <.A i h . . . . . . .                               ",
"                                  . . . . . . . . . . 8 e d c 5 b a 2 2 2 4.] { 9 . . . . . . . .                               ",
"                                  . . . . . . . . . . . . 8 7 6 , 5 4 3 2 5.[.} [ . . . . . . . .                               ",
"                                  . . . . . . . . . . . . . . < : _ ( / ^ ] { ~ . . . . . . . . .                               ",
"                                  . . . . . . . . . . . . . . . . ! ) ' , > ; - . . . . . . . . .                               ",
"                                  . . . . . . . . . . . . . . . . . = * & % $ . . . . . . . . . .                               ",
"                                  . . . . . . . . . . . . . . . . . . . # @ + . . . . . . . . . .                               ",
"                                                                                                                                ",
"                                                                                                                                ",
"                                                                                                                                ",
"                                                                                                                                ",
"                                                                                                                                ",
"                                                                                                                                ",
"                                                                                                                                ",
"                                                                                                                                ",
"                                                                                                                                ",
"                                                                                                                                ",
"                                                                                                                                ",
"                                                                                                                                ",
"                                                                                                                                ",
"                                                                                                                                ",
"                                                                                                                                ",
"                                                                                                                                "};
