/* XPM */
static char * exit_xpm[] = {
"64 64 436 2",
"  	c #1B5E12",
". 	c #215F19",
"+ 	c #266122",
"@ 	c #2A6125",
"# 	c #2B6126",
"$ 	c #25601F",
"% 	c #2D6128",
"& 	c #366332",
"* 	c #376433",
"= 	c #748976",
"- 	c #8A8D8A",
"; 	c #8A8C8B",
"> 	c #8C8C8C",
", 	c #848484",
"' 	c #8A8A8A",
") 	c #858585",
"! 	c #858785",
"~ 	c #898989",
"{ 	c #878787",
"] 	c #657464",
"^ 	c #356532",
"/ 	c #256020",
"( 	c #31622D",
"_ 	c #3F663C",
": 	c #757F74",
"< 	c #8E8E8E",
"[ 	c #8F8F8F",
"} 	c #AEAEAE",
"| 	c #ABBEBE",
"1 	c #AEA8B7",
"2 	c #A9A8BE",
"3 	c #858587",
"4 	c #9E9EB2",
"5 	c #8A8A92",
"6 	c #9DA1BF",
"7 	c #879990",
"8 	c #9BAAAA",
"9 	c #909999",
"0 	c #939F9F",
"a 	c #8D8D8D",
"b 	c #858E87",
"c 	c #436359",
"d 	c #1A5B26",
"e 	c #476945",
"f 	c #727E72",
"g 	c #939393",
"h 	c #AAAAAA",
"i 	c #B7A3B7",
"j 	c #9F96B4",
"k 	c #71718F",
"l 	c #2E6584",
"m 	c #5D0F9C",
"n 	c #262085",
"o 	c #61619E",
"p 	c #2D2D84",
"q 	c #727294",
"r 	c #3939CA",
"s 	c #6B8A88",
"t 	c #539693",
"u 	c #6B9393",
"v 	c #598C8C",
"w 	c #9D9D9D",
"x 	c #989898",
"y 	c #4E4E8D",
"z 	c #1D4963",
"A 	c #6E7C6E",
"B 	c #969696",
"C 	c #9191A3",
"D 	c #8B8B9D",
"E 	c #707087",
"F 	c #5E236B",
"G 	c #1E0478",
"H 	c #202084",
"I 	c #550AA1",
"J 	c #2F25D2",
"K 	c #5B7E88",
"L 	c #2E2ED3",
"M 	c #868686",
"N 	c #959595",
"O 	c #888888",
"P 	c #A4A9A4",
"Q 	c #C4CEC4",
"R 	c #C6C6C6",
"S 	c #B1B1B1",
"T 	c #3D3D97",
"U 	c #175345",
"V 	c #768375",
"W 	c #9E9EAE",
"X 	c #80809A",
"Y 	c #454582",
"Z 	c #040458",
"` 	c #1E1E61",
" .	c #131369",
"..	c #232378",
"+.	c #4D4DA4",
"@.	c #3737CB",
"#.	c #7A7A8D",
"$.	c #4B9999",
"%.	c #9DA49D",
"&.	c #A4A4A4",
"*.	c #C4C4C4",
"=.	c #C5C5C5",
"-.	c #BABABA",
";.	c #979797",
">.	c #9C9C9C",
",.	c #373791",
"'.	c #2B6227",
").	c #708571",
"!.	c #ACACBB",
"~.	c #62629F",
"{.	c #040445",
"].	c #04045C",
"^.	c #1F1F84",
"/.	c #4545A1",
"(.	c #4040C3",
"_.	c #6D4898",
":.	c #4A3EB9",
"<.	c #767690",
"[.	c #A7A7A7",
"}.	c #9F9F9F",
"|.	c #A8B4A8",
"1.	c #A5A5A5",
"2.	c #BDBDBD",
"3.	c #ACACAC",
"4.	c #ABABAB",
"5.	c #B9B9B9",
"6.	c #292984",
"7.	c #3D683C",
"8.	c #9DA59F",
"9.	c #B3B3D8",
"0.	c #04046C",
"a.	c #040443",
"b.	c #202064",
"c.	c #4444A1",
"d.	c #4343C0",
"e.	c #4545BE",
"f.	c #724294",
"g.	c #847484",
"h.	c #A0A0A0",
"i.	c #A6A6A6",
"j.	c #A9A9A9",
"k.	c #C1C1C1",
"l.	c #C2C7C3",
"m.	c #A5A8A5",
"n.	c #C6C6D8",
"o.	c #2F2F84",
"p.	c #04046B",
"q.	c #427294",
"r.	c #748484",
"s.	c #C3C3C3",
"t.	c #D0D0D0",
"u.	c #B3B3B3",
"v.	c #B2B7B3",
"w.	c #B7BBB8",
"x.	c #9B9B9B",
"y.	c #3C673B",
"z.	c #959B96",
"A.	c #D9D9D9",
"B.	c #AEAEC0",
"C.	c #68689C",
"D.	c #2B2B84",
"E.	c #4519A1",
"F.	c #4026C3",
"G.	c #486D98",
"H.	c #778484",
"I.	c #999999",
"J.	c #CACACA",
"K.	c #C9C9C9",
"L.	c #C8C8C8",
"M.	c #DEDEDE",
"N.	c #D5D5D5",
"O.	c #C7C7C7",
"P.	c #BBBBBB",
"Q.	c #B8B8B8",
"R.	c #3B673A",
"S.	c #8E9890",
"T.	c #CFCFCF",
"U.	c #D1D1D1",
"V.	c #CBCBCB",
"W.	c #BCBCD1",
"X.	c #A4A4D1",
"Y.	c #BFA4D1",
"Z.	c #B4A4ED",
"`.	c #C4C4DE",
" +	c #E8E8E8",
".+	c #D8D8D8",
"++	c #DADADA",
"@+	c #C5C9C7",
"#+	c #C1C7C4",
"$+	c #3D673B",
"%+	c #868A86",
"&+	c #CDCDCD",
"*+	c #D7D7D7",
"=+	c #D6D6D6",
"-+	c #D4D4D4",
";+	c #C3C4C4",
">+	c #BFC9C4",
",+	c #C7C9C8",
"'+	c #BFC7C3",
")+	c #C6C7C7",
"!+	c #C5C8C6",
"~+	c #8484AE",
"{+	c #8585AF",
"]+	c #9A9A9A",
"^+	c #3B6739",
"/+	c #89958B",
"(+	c #EFEFEF",
"_+	c #F0F0F0",
":+	c #CECECE",
"<+	c #ECECEC",
"[+	c #B6C4C3",
"}+	c #329494",
"|+	c #2F7DA8",
"1+	c #324FD5",
"2+	c #65A4A4",
"3+	c #6969A5",
"4+	c #96A098",
"5+	c #262B81",
"6+	c #3E663B",
"7+	c #E6E6E6",
"8+	c #E7E7E7",
"9+	c #FCFCFC",
"0+	c #DDDDDD",
"a+	c #F5F5F5",
"b+	c #F4F4F4",
"c+	c #25ECEC",
"d+	c #238F8F",
"e+	c #048484",
"f+	c #047E88",
"g+	c #0455B0",
"h+	c #0F1EEA",
"i+	c #6666DF",
"j+	c #6D6DA9",
"k+	c #999B9A",
"l+	c #282A83",
"m+	c #3A6739",
"n+	c #8A978C",
"o+	c #DCDCDC",
"p+	c #F9F9F9",
"q+	c #F7F7F7",
"r+	c #FBFBFB",
"s+	c #26F4F4",
"t+	c #049797",
"u+	c #04E1E1",
"v+	c #04699C",
"w+	c #042FD2",
"x+	c #044DB7",
"y+	c #0D0DF9",
"z+	c #0F0FC0",
"A+	c #6A6AA6",
"B+	c #848584",
"C+	c #DBDBDB",
"D+	c #E4E4E4",
"E+	c #2BF9F9",
"F+	c #04FBFB",
"G+	c #BFC7C7",
"H+	c #B8C6C6",
"I+	c #BAC1C1",
"J+	c #BEC4C7",
"K+	c #8385D4",
"L+	c #0433CF",
"M+	c #044AB9",
"N+	c #0404C3",
"O+	c #3D653B",
"P+	c #FAFAFA",
"Q+	c #1BF6F6",
"R+	c #B9C7C7",
"S+	c #CCCCCC",
"T+	c #C5C5CA",
"U+	c #7878D9",
"V+	c #0404FC",
"W+	c #6969A6",
"X+	c #848685",
"Y+	c #9E9E9E",
"Z+	c #E5E5E5",
"`+	c #BAC6C6",
" @	c #2CEFEF",
".@	c #C6D3D3",
"+@	c #EDEDED",
"@@	c #BEBEC2",
"#@	c #7B7BCB",
"$@	c #0404ED",
"%@	c #0404BC",
"&@	c #89968C",
"*@	c #27A1A1",
"=@	c #95BABA",
"-@	c #EDEFEF",
";@	c #9E9EB7",
">@	c #24268F",
",@	c #262690",
"'@	c #25268F",
")@	c #7A7AAB",
"!@	c #3D673D",
"~@	c #848A89",
"{@	c #A3A3A3",
"]@	c #D2D2D2",
"^@	c #26F2F2",
"/@	c #04ABAB",
"(@	c #8EB3B3",
"_@	c #E9E9E9",
":@	c #CCCFCD",
"<@	c #C5CDC9",
"[@	c #C1C6C3",
"}@	c #AEB4CC",
"|@	c #B1B1CD",
"1@	c #38693F",
"2@	c #819892",
"3@	c #B6B6B6",
"4@	c #26F3F3",
"5@	c #04FCFC",
"6@	c #04ACAC",
"7@	c #93B8B8",
"8@	c #B5D6D6",
"9@	c #DFDFDF",
"0@	c #6C6CE1",
"a@	c #6969DE",
"b@	c #818B83",
"c@	c #A8A8A8",
"d@	c #E3E3E3",
"e@	c #EBEBEB",
"f@	c #D3D3D3",
"g@	c #04AEAE",
"h@	c #13AEAE",
"i@	c #84B1B1",
"j@	c #99BBBB",
"k@	c #3E653B",
"l@	c #B7B7B7",
"m@	c #E0E0E0",
"n@	c #F1F1F1",
"o@	c #04CDCD",
"p@	c #04F9F9",
"q@	c #0DC5C5",
"r@	c #539E9E",
"s@	c #74ADAD",
"t@	c #E1E1E1",
"u@	c #A6A6D0",
"v@	c #5858D3",
"w@	c #8282C7",
"x@	c #3C673A",
"y@	c #878E88",
"z@	c #AFAFAF",
"A@	c #EEEEEE",
"B@	c #04C0C0",
"C@	c #09C1C1",
"D@	c #63A5A5",
"E@	c #79ABAB",
"F@	c #A4A4CD",
"G@	c #3F3FEA",
"H@	c #4E4ED1",
"I@	c #292983",
"J@	c #868D87",
"K@	c #ADADAD",
"L@	c #61E5E5",
"M@	c #0ABEBE",
"N@	c #57A1A1",
"O@	c #138989",
"P@	c #5FA3A3",
"Q@	c #61A4A4",
"R@	c #3E6AC1",
"S@	c #1F1FE1",
"T@	c #8282C0",
"U@	c #C2C7C5",
"V@	c #C5C8C7",
"W@	c #6F6F9A",
"X@	c #1E3F6A",
"Y@	c #195932",
"Z@	c #889189",
"`@	c #B5B5B5",
" #	c #4CACAC",
".#	c #73A9A9",
"+#	c #0AB4B4",
"@#	c #6BA9A9",
"##	c #046D98",
"$#	c #1E40C3",
"%#	c #7474B0",
"&#	c #AEB1B0",
"*#	c #98A29B",
"=#	c #495F75",
"-#	c #195833",
";#	c #868B87",
">#	c #8CD4D4",
",#	c #84B6B6",
"'#	c #E2E5E5",
")#	c #7DACAC",
"!#	c #429A9A",
"~#	c #047591",
"{#	c #1744BF",
"]#	c #63829C",
"^#	c #9292CA",
"/#	c #A5AAA6",
"(#	c #93A096",
"_#	c #778877",
":#	c #4E6E4E",
"<#	c #336531",
"[#	c #88938B",
"}#	c #E2E2E2",
"|#	c #E6E8E8",
"1#	c #90B6B6",
"2#	c #8BAAB7",
"3#	c #9595CD",
"4#	c #AAAEAB",
"5#	c #8D9E96",
"6#	c #759184",
"7#	c #466E47",
"8#	c #356633",
"9#	c #59785A",
"0#	c #9BA69D",
"a#	c #F3F3F3",
"b#	c #919491",
"c#	c #7A8D7D",
"d#	c #406C44",
"e#	c #33683C",
"f#	c #587759",
"g#	c #8B968D",
"h#	c #86968A",
"i#	c #939594",
"j#	c #7B8E7E",
"k#	c #3D663B",
"l#	c #23601E",
"m#	c #336431",
"n#	c #5D795E",
"o#	c #9EAEA3",
"p#	c #C6CCC9",
"q#	c #C4CCC9",
"r#	c #C0CEC7",
"s#	c #87A29E",
"t#	c #85988B",
"u#	c #809283",
"v#	c #326530",
"w#	c #356331",
"x#	c #2F642C",
"y#	c #22601C",
"z#	c #396836",
"A#	c #376836",
"B#	c #29632B",
"C#	c #286124",
"                                                                                                                                ",
"                                                                                                                                ",
"                                                                                                                                ",
"                                                                                                                                ",
"                                                                                                                                ",
"                                                                                                                                ",
"                                                                                                                                ",
"                                                                                                                                ",
"                                                                                                                                ",
"                                                                                                                                ",
"                                                                                                                                ",
"                                                                                                                                ",
"                                                                                                                                ",
"                                                                                                                                ",
"                                                                                                                                ",
"                                                                                                                                ",
"                                . . . . . . . . . . . . + @ # # # # # # # # # # $ . . . . . . .                                 ",
"                                . . . . . . . . . % & * = - ; > , ' ) ' ! ~ { { ] ^ / . . . . .                                 ",
"                                . . . . . . . ( _ : < [ } | 1 2 3 4 5 6 7 8 9 0 a b c d . . . .                                 ",
"                                . . . . . ( e f g h i j k l m n o p q r s t u v w x y z d . . .                                 ",
"                                . . . . ( A B C D E F G H I J K L M N O P Q R S > , } T U . . .                                 ",
"                                . . . ( V W X Y Z `  ...+.@.#.$.) %.} &.*.=.=.-.;.>.S ,.U . . .                                 ",
"                                . . '.).!.~.{.].^./.(._.:.<.M [.}.|.1.R 2.3.4.S h 5.>.6.U . . .                                 ",
"                                . . 7.8.9.0.a.b.c.d.e.f.g., { h.1.1.i.j.&.4.S k.l.m.[ 6.U . . .                                 ",
"                                . . 7.8.n.o.p.b.c.d.e.q.r.}.{ h.) 1.4.s.*.t.=.u.v.w.x.6.U . . .                                 ",
"                                . . y.z.A.B.C.D.^.E.F.G.H.I.3.j.J.K.L.M.N.O.P.Q.R R >.6.U . . .                                 ",
"                                . . R.S.T.U.V.W.X.Y.Z.`.U.U. +V..+++*.R =.@+#+=.L.O.x.6.U . . .                                 ",
"                                . . $+%+1.*.&+*+*+=+.+=+.+N.-+O.;+>+,+'+L.)+!+~+{+*.]+6.U . . .                                 ",
"                                . . ^+/+2.R ++(+(+(+_+(+_+(+:+<+*.[+}+|+1+2+=.3+3+O.4+5+U . . .                                 ",
"                                . . 6+! }.-+7+8+9+9+9+9+0+a+b+=+c+d+e+f+g+h+i+3+j+O.k+l+U . . .                                 ",
"                                . . m+n+s.R o+p+9+9+9+9+q+r+=+s+t+u+e+v+w+x+y+z+A+*.]+6.U . . .                                 ",
"                                . . _ B+>.C+8+D+9+9+9+9+A.b+E+F+G+H+I+J+K+L+M+N+3+L.w 6.U . . .                                 ",
"                                . . O+[ k.=.C+P+9+9+9+9+9+-+Q+R+J.b+S+=.T+U+V+N+W+*.]+6.U . . .                                 ",
"                                . . 6+X+Y+++7+Z+9+9+9+9+q+`+ @.@p+N.+@@@#@$@$@%@j+R ]+6.U . . .                                 ",
"                                . . m+&@k.L.0+q+9+9+9+9+=+*@=@-@r+(+U.;@>@,@'@'@)@*.x.6.U . . .                                 ",
"                                . . !@~@{@*+Z+ +9+9+9+9+]@^@/@(@(+++_@:@<@t.[@}@|@O.>.6.U . . .                                 ",
"                                . . 1@2@3@V.M.b+9+9+9+9+N.4@5@6@7@8@S+8+9@9@R 0@a@=.x.6.U . . .                                 ",
"                                . . ^+b@c@-+d@e@9+9+9+9+f@^@5@5@g@h@i@j@7+N.=.a@a@O.>.6.U . . .                                 ",
"                                . . k@> l@S+m@n@9+9+9+9+-+^@5@o@p@q@r@s@t@++u@v@w@=.x.6.U . . .                                 ",
"                                . . x@y@z@T.D+A@9+9+9+9+-+^@5@B@C@D@E@V.C+F@G@H@3@L.]+I@U . . .                                 ",
"                                . . x@J@K@]@D+A@9+9+9+9+-+^@L@M@C@N@O@P@Q@R@S@T@U@V@W@X@Y@. . .                                 ",
"                                . . x@Z@`@:+m@n@9+9+9+9+-+^@ #.#+#@#e+e+##$#%#Q.&#*#=#-#. . . .                                 ",
"                                . . $+;#c@t.d@e@9+9+9+9+f@>#,#'#)#!#~#{#]#^#/#(#_#:#<#. . . . .                                 ",
"                                . . ^+[#-.V.}#b+9+9+9+9+N.Z++@C+|#1#2#3#4#5#6#7#8#. . . . . . .                                 ",
"                                . . / 9#0#f@7+ +9+9+9+9+a#P+C+(+.+e@P.b#c#d#e#. . . . . . . . .                                 ",
"                                . . . / f#g#4.9@9+9+9+9+9+=+(+t.h#i#j#k#<#. . . . . . . . . . .                                 ",
"                                . . . . l#m#n#o#p#q#r#r#r#s#t#u#v#w#x#. . . . . . . . . . . . .                                 ",
"                                . . . . . . y#x#z#z#A#A#A#B#C#C#. . . . . . . . . . . . . . . .                                 ",
"                                                                                                                                ",
"                                                                                                                                ",
"                                                                                                                                ",
"                                                                                                                                ",
"                                                                                                                                ",
"                                                                                                                                ",
"                                                                                                                                ",
"                                                                                                                                ",
"                                                                                                                                ",
"                                                                                                                                ",
"                                                                                                                                ",
"                                                                                                                                ",
"                                                                                                                                ",
"                                                                                                                                ",
"                                                                                                                                ",
"                                                                                                                                "};
