/* XPM */
static char * shrek1_xpm[] = {
"64 64 239 2",
"  	c #1B5E12",
". 	c #154F0D",
"+ 	c #154D0D",
"@ 	c #16520E",
"# 	c #17540F",
"$ 	c #11430A",
"% 	c #474644",
"& 	c #4B4949",
"* 	c #3D433A",
"= 	c #17530F",
"- 	c #195411",
"; 	c #474C45",
"> 	c #7D7979",
", 	c #4B4E49",
"' 	c #1D361A",
") 	c #185510",
"! 	c #1A5B11",
"~ 	c #195810",
"{ 	c #938E8E",
"] 	c #615E5E",
"^ 	c #14410F",
"/ 	c #1D3F19",
"( 	c #7A7676",
"_ 	c #4E4C4C",
": 	c #283F25",
"< 	c #1A5C11",
"[ 	c #494747",
"} 	c #908B8B",
"| 	c #625F5F",
"1 	c #184A12",
"2 	c #1B5D12",
"3 	c #185610",
"4 	c #283A26",
"5 	c #918C8C",
"6 	c #878383",
"7 	c #153B11",
"8 	c #282F27",
"9 	c #969191",
"0 	c #837F7F",
"a 	c #133E0E",
"b 	c #40413E",
"c 	c #716D6D",
"d 	c #12460B",
"e 	c #1A5A11",
"f 	c #0D3907",
"g 	c #0C3607",
"h 	c #272825",
"i 	c #484B46",
"j 	c #185310",
"k 	c #185710",
"l 	c #0F3F09",
"m 	c #052203",
"n 	c #000300",
"o 	c #000000",
"p 	c #060606",
"q 	c #191818",
"r 	c #070D06",
"s 	c #0F3E09",
"t 	c #144B0C",
"u 	c #010E01",
"v 	c #13480C",
"w 	c #194913",
"x 	c #686665",
"y 	c #092E05",
"z 	c #736F6F",
"A 	c #343333",
"B 	c #10420A",
"C 	c #17550F",
"D 	c #1A3417",
"E 	c #5C5959",
"F 	c #193016",
"G 	c #6B6767",
"H 	c #031802",
"I 	c #072804",
"J 	c #242222",
"K 	c #2B3829",
"L 	c #010A01",
"M 	c #052103",
"N 	c #16500E",
"O 	c #1B4D16",
"P 	c #535453",
"Q 	c #D5D5D5",
"R 	c #FFFFFF",
"S 	c #555555",
"T 	c #4E524E",
"U 	c #164C0F",
"V 	c #195911",
"W 	c #143211",
"X 	c #104009",
"Y 	c #000400",
"Z 	c #154F0E",
"` 	c #848684",
" .	c #FAFAFA",
"..	c #B5B5B5",
"+.	c #808080",
"@.	c #A0A0A0",
"#.	c #EFEFEF",
"$.	c #858585",
"%.	c #314930",
"&.	c #0E230B",
"*.	c #484646",
"=.	c #0E300B",
"-.	c #11440A",
";.	c #072A04",
">.	c #051F03",
",.	c #0E3D08",
"'.	c #E0E0E0",
").	c #3C3C3C",
"!.	c #121212",
"~.	c #0B0B0B",
"{.	c #8E8E8E",
"].	c #F4F4F4",
"^.	c #696969",
"/.	c #195512",
"(.	c #5C635B",
"_.	c #AEAEAE",
":.	c #303D2F",
"<.	c #1D5018",
"[.	c #082D05",
"}.	c #151515",
"|.	c #C0C0C0",
"1.	c #1C361A",
"2.	c #425341",
"3.	c #F5F5F5",
"4.	c #9F9F9F",
"5.	c #555E55",
"6.	c #878787",
"7.	c #636363",
"8.	c #EAEAEA",
"9.	c #22471F",
"0.	c #C8C8C8",
"a.	c #A3A3A3",
"b.	c #4A4A4A",
"c.	c #040404",
"d.	c #4E4E4E",
"e.	c #B1B1B1",
"f.	c #DCDCDC",
"g.	c #AAAAAA",
"h.	c #1B4417",
"i.	c #20401D",
"j.	c #A4A4A4",
"k.	c #9C9C9C",
"l.	c #3A493A",
"m.	c #283C26",
"n.	c #BFBFBF",
"o.	c #202020",
"p.	c #154E0D",
"q.	c #475047",
"r.	c #455444",
"s.	c #AFAFAF",
"t.	c #787B78",
"u.	c #2D402C",
"v.	c #1A5812",
"w.	c #254223",
"x.	c #CCCCCC",
"y.	c #EDEDED",
"z.	c #E8E8E8",
"A.	c #191919",
"B.	c #171717",
"C.	c #B0B0B0",
"D.	c #FDFDFD",
"E.	c #12470B",
"F.	c #20221F",
"G.	c #0B2209",
"H.	c #CACACA",
"I.	c #C5C5C5",
"J.	c #1B4B16",
"K.	c #2B2B2B",
"L.	c #E4E4E4",
"M.	c #333333",
"N.	c #1F471B",
"O.	c #262424",
"P.	c #1D1C1C",
"Q.	c #072904",
"R.	c #585555",
"S.	c #2C2B2B",
"T.	c #195A11",
"U.	c #6A6767",
"V.	c #174911",
"W.	c #484945",
"X.	c #8C8787",
"Y.	c #383D36",
"Z.	c #524F4F",
"`.	c #424840",
" +	c #444941",
".+	c #30402E",
"++	c #20421D",
"@+	c #797575",
"#+	c #194314",
"$+	c #757271",
"%+	c #4F4D4D",
"&+	c #184F11",
"*+	c #8A8585",
"=+	c #303E2E",
"-+	c #1B4716",
";+	c #686565",
">+	c #3F3D3D",
",+	c #144C0D",
"'+	c #394037",
")+	c #8F8A8A",
"!+	c #62615F",
"~+	c #8D8888",
"{+	c #4E4E4A",
"]+	c #747070",
"^+	c #183316",
"/+	c #6F6C6B",
"(+	c #0B2608",
"_+	c #4C4D4A",
":+	c #0A3206",
"<+	c #293428",
"[+	c #213C1F",
"}+	c #646161",
"|+	c #343F32",
"1+	c #494A47",
"2+	c #2B3728",
"3+	c #323030",
"4+	c #164B10",
"5+	c #585754",
"6+	c #174F10",
"7+	c #184D12",
"8+	c #253C22",
"9+	c #817D7D",
"0+	c #243921",
"a+	c #8E8989",
"b+	c #7B7777",
"c+	c #233F1F",
"d+	c #514F4F",
"e+	c #777373",
"f+	c #454343",
"g+	c #1A4914",
"h+	c #63615F",
"i+	c #726F6E",
"j+	c #223220",
"k+	c #1E2F1B",
"l+	c #363E34",
"m+	c #666563",
"n+	c #1A4715",
"o+	c #2F342C",
"p+	c #154C0E",
"                                                                                                                                ",
"                                                                                                                                ",
"                                                                                                                                ",
"                                                                                                                                ",
"                                                                                                                                ",
"                                                                                                                                ",
"                                                            . + + + + @                                                         ",
"                                                        # $ % & & & & * =                                                       ",
"                                                      - ; > > > > > > > , ' ) !                                                 ",
"                                                  ~ $ ; { ] ^ $ $ $ $ / & ( _ : <                                               ",
"                                                  @ [ } | 1 2         < 3 4 5 6 7                                               ",
"                                                  8 9 0 a                 ~ b 9 c d                                             ",
"                                            e f g h 9 i j                 ~ b 9 c d                                             ",
"                                        k l m n o p q r s 3 2             ~ b 9 c d                                             ",
"                                      t u o o o o o o o o o v             w x 9 c d                                             ",
"                                      y o o t 3 y z A t B o C             D E q F e                                             ",
"                                        d     v G c v                     y o o o o H =                                         ",
"                                      $ g g g I J K ~                     + L o o o o M N                                       ",
"                                  O P Q R R R R R Q S T U V               D } 9 W   X Y o .                                     ",
"                                Z `  .R R ..+.+.+.@.R #.$.%.<         ~ $ &.*.& =.  ! -.;.>.N                                   ",
"                                ,.'.R R ).!.o o o ~.{.].R ^./.    ! 3 (.Q Q Q Q _.:.<.V V + [.3                                 ",
"                                ,.'.R R }.o o o o o o |.R R 1.  ! 2.+.3.R #.$.+.3.R 4.5.$ <                                     ",
"                                ,.'.R R 6.o o o o o 7.8.R R 1.  9.0.R R a.b.c.o d.e.R f.g.h.                                    ",
"                                  i.j.8.R k.S S S +.R R f.l.!   m.3.R n.o o o o o o o.3.R 1.                                    ",
"                                  < p.q.+.R R R R R R 8.r.V     m.3.R 8.d.o o o o o o.3.R 1.                                    ",
"                                      ~ <.:.s.Q Q Q t.u.v.      w.x.y.R z.S A.o o B.C.D.R 1.                                    ",
"                                            E.F.& G.#           ! -.5.@.R R H.+.+.I.R R ..J.                                    ",
"                                            ~ b 9 W                 V O K.H.R R R R L.M.N.2                                     ",
"                                            ~ b 9 W                     X O.P.Q.g g ,.2                                         ",
"                                            ~ b 9 W   e f C             X c R.v     e f g !                                     ",
"                                            ~ b 9 W   D } S.e           X c R.v   T.4 5 9 W                                     ",
"                                            ~ b 9 W   D } S.e           X c R.v   X c 9 U.V.                                    ",
"                                            ~ b 9 W   D } S.e         # W.} R.v # W.} X.Y.!                                     ",
"                                            ~ b 9 W   D } S.e         @ Z.} `.N @ Z.9 R.v                                       ",
"                                            ~ b 9 W   D } S.e         @ Z.0 a   @ Z.9 R.v                                       ",
"                                            ~ b 9 W   D } S.e         @ Z.0 a   8 9 } `.N                                       ",
"                                            ~ b 9  +# D } S.e         @ Z.0 a   8 9 0 a                                         ",
"                                            ~ b 9 c v D } S.e         @ Z.0 a   8 9 0 a                                         ",
"                                            ~ b 9 c v D } S.e         ~ .+c a   8 9 0 a                                         ",
"                                            < ++@+c v D } S.e           X U.`.N 8 9 0 a                                         ",
"                                              v G c v #+$+%+&+          X c R.v 8 9 9 R.v                                       ",
"                                              v G *+=+Z b 9 W           X c R.v -+;+9 R.v                                       ",
"                                              v G 9 >+,+'+)+!+,+      # W.~+{+,+@ Z.9 R.v                                       ",
"                                              v G 9 >+@ v G 0 : E.2 Z / ]+0 a   @ Z.9 R.v                                       ",
"                                              ! ^+X.>+@ ! ^+X.6 /+(+_+0 9 0 a   @ Z.9 R.v                                       ",
"                                                :+*+9 <+<   [+}+*+9 9 ;+|+,.2   @ Z.9 R.v                                       ",
"                                                = 1+9 <+<   e + 2+3+3+4+k       @ Z.9 R.v                                       ",
"                                                  8 9 <+<                       @ Z.9 R.v                                       ",
"                                                  8 9 5+6+                      @ Z.9 R.v                                       ",
"                                                  7+| 0 a                       @ Z.9 R.v                                       ",
"                                                  @ R.9 R.Z                     -+;+0 a                                         ",
"                                                  e 8+> 9+0+!                   8 9 i j                                         ",
"                                                      #+$+%+4+~             k 8+a+b+c+2                                         ",
"                                                      ~ b 9 d+: E.2   ~ $ $ : e+9 f+@                                           ",
"                                                      2 g+h+0 6 i+j+k+l+> > 6 6 m+n+<                                           ",
"                                                          ,+/ & 0 9 9 9 9 ~+_ : t                                               ",
"                                                            e + 2+3+3+3+3+o+p+~                                                 ",
"                                                                                                                                ",
"                                                                                                                                ",
"                                                                                                                                ",
"                                                                                                                                ",
"                                                                                                                                ",
"                                                                                                                                ",
"                                                                                                                                "};
