/* XPM */
static char * wall_vill_r_xpm[] = {
"64 64 390 2",
"  	c #1B5E12",
". 	c #215F19",
"+ 	c #1B5D12",
"@ 	c #1A5B11",
"# 	c #1A5C12",
"$ 	c #1A5C11",
"% 	c #185610",
"& 	c #090709",
"* 	c #1A181A",
"= 	c #171517",
"- 	c #153B11",
"; 	c #1A5A11",
"> 	c #192C18",
", 	c #131113",
"' 	c #061305",
") 	c #195811",
"! 	c #194C13",
"~ 	c #161416",
"{ 	c #164511",
"] 	c #302E30",
"^ 	c #C0C0C0",
"/ 	c #ADADAD",
"( 	c #545354",
"_ 	c #11410B",
": 	c #0C2E08",
"< 	c #9E9E9E",
"[ 	c #858485",
"} 	c #194F13",
"| 	c #252325",
"1 	c #4F4E4F",
"2 	c #ACACAC",
"3 	c #959495",
"4 	c #1D1C1D",
"5 	c #184912",
"6 	c #7E7E7E",
"7 	c #1C3D19",
"8 	c #195911",
"9 	c #2A3829",
"0 	c #A6A6A6",
"a 	c #848384",
"b 	c #BCBCBC",
"c 	c #9A999A",
"d 	c #434843",
"e 	c #555954",
"f 	c #969696",
"g 	c #282728",
"h 	c #17520F",
"i 	c #BABABA",
"j 	c #B4B4B4",
"k 	c #504F50",
"l 	c #13450C",
"m 	c #0D3309",
"n 	c #939393",
"o 	c #B1B1B1",
"p 	c #5C5B5C",
"q 	c #0F380A",
"r 	c #525052",
"s 	c #6B6A6B",
"t 	c #908F90",
"u 	c #B3B2B3",
"v 	c #7C7B7C",
"w 	c #203F1E",
"x 	c #195710",
"y 	c #17530F",
"z 	c #384438",
"A 	c #A3A3A3",
"B 	c #BDBDBD",
"C 	c #848484",
"D 	c #696869",
"E 	c #263925",
"F 	c #154C0E",
"G 	c #12420C",
"H 	c #6F6E6F",
"I 	c #7D7C7D",
"J 	c #AEAEAE",
"K 	c #4B494B",
"L 	c #14490D",
"M 	c #888888",
"N 	c #616061",
"O 	c #B2B2B2",
"P 	c #1F3D1D",
"Q 	c #6A696A",
"R 	c #646364",
"S 	c #818081",
"T 	c #515051",
"U 	c #454345",
"V 	c #233E21",
"W 	c #2C2B2C",
"X 	c #919091",
"Y 	c #7B7B7B",
"Z 	c #243E22",
"` 	c #444D43",
" .	c #A2A2A2",
"..	c #151315",
"+.	c #A9A9A9",
"@.	c #2A4228",
"#.	c #676667",
"$.	c #7B7A7B",
"%.	c #040204",
"&.	c #B0B0B0",
"*.	c #454445",
"=.	c #364835",
"-.	c #666566",
";.	c #1E3D1C",
">.	c #314630",
",.	c #8B8B8B",
"'.	c #979797",
").	c #717171",
"!.	c #21451E",
"~.	c #071D06",
"{.	c #727172",
"].	c #575B57",
"^.	c #154B0E",
"/.	c #185410",
"(.	c #354734",
"_.	c #929192",
":.	c #979697",
"<.	c #103D0B",
"[.	c #B8B8B8",
"}.	c #3B393B",
"|.	c #0A2607",
"1.	c #082006",
"2.	c #4B534B",
"3.	c #A4A4A4",
"4.	c #292729",
"5.	c #898889",
"6.	c #20471C",
"7.	c #838383",
"8.	c #1B4A16",
"9.	c #5A595A",
"0.	c #AFAFAF",
"a.	c #A5A5A5",
"b.	c #4E4D4E",
"c.	c #1A4516",
"d.	c #0A2907",
"e.	c #0E0C0E",
"f.	c #2B2A2B",
"g.	c #161516",
"h.	c #071B05",
"i.	c #081E06",
"j.	c #1E1C1E",
"k.	c #164F0F",
"l.	c #050F05",
"m.	c #2B292B",
"n.	c #222022",
"o.	c #050804",
"p.	c #0E3609",
"q.	c #1C4B17",
"r.	c #272527",
"s.	c #1A4515",
"t.	c #280204",
"u.	c #D00204",
"v.	c #900204",
"w.	c #262006",
"x.	c #050FA3",
"y.	c #AC02D0",
"z.	c #1C02D0",
"A.	c #C402D0",
"B.	c #1002D0",
"C.	c #B802C4",
"D.	c #050D5C",
"E.	c #384006",
"F.	c #D0D104",
"G.	c #515506",
"H.	c #2F0204",
"I.	c #FC0204",
"J.	c #BD0204",
"K.	c #3F0204",
"L.	c #08029E",
"M.	c #AB02F5",
"N.	c #4202FC",
"O.	c #C802FC",
"P.	c #2C02FC",
"Q.	c #D302F5",
"R.	c #1D0283",
"S.	c #2A2910",
"T.	c #E5E704",
"U.	c #FCFE04",
"V.	c #E9EA04",
"W.	c #DEE004",
"X.	c #3A3F05",
"Y.	c #6E0204",
"Z.	c #06029B",
"`.	c #A802F7",
" +	c #4602FC",
".+	c #C602FC",
"++	c #E002FC",
"@+	c #1102ED",
"#+	c #1F1D0A",
"$+	c #EFF104",
"%+	c #F0F204",
"&+	c #2E3105",
"*+	c #D10204",
"=+	c #840204",
"-+	c #800204",
";+	c #3E020C",
">+	c #A002A9",
",+	c #4D02F7",
"'+	c #610298",
")+	c #250219",
"!+	c #120204",
"~+	c #75027C",
"{+	c #211F04",
"]+	c #F8FA04",
"^+	c #A8A906",
"/+	c #09020E",
"(+	c #0C0212",
"_+	c #04020B",
":+	c #050D05",
"<+	c #4B4B04",
"[+	c #CACA04",
"}+	c #F4F604",
"|+	c #9E9D04",
"1+	c #1A1804",
"2+	c #CC0204",
"3+	c #740204",
"4+	c #390204",
"5+	c #840295",
"6+	c #6402FC",
"7+	c #5C02A7",
"8+	c #1E0222",
"9+	c #04026E",
"0+	c #C1C204",
"a+	c #080229",
"b+	c #5A02AE",
"c+	c #9002FC",
"d+	c #130287",
"e+	c #4F4F05",
"f+	c #747204",
"g+	c #1A2505",
"h+	c #A40204",
"i+	c #061705",
"j+	c #071A05",
"k+	c #1D0295",
"l+	c #9702FC",
"m+	c #5002A7",
"n+	c #090222",
"o+	c #092507",
"p+	c #1E1D04",
"q+	c #EAEB04",
"r+	c #230229",
"s+	c #5702AE",
"t+	c #7102FC",
"u+	c #700287",
"v+	c #113E0B",
"w+	c #103C0A",
"x+	c #730295",
"y+	c #6C02FC",
"z+	c #5A02A7",
"A+	c #1B0222",
"B+	c #142E07",
"C+	c #7B7904",
"D+	c #ACAC04",
"E+	c #0C0229",
"F+	c #8B02FC",
"G+	c #220287",
"H+	c #222104",
"I+	c #3E3D04",
"J+	c #25490C",
"K+	c #2E0295",
"L+	c #8F02FC",
"M+	c #5202A7",
"N+	c #0C0222",
"O+	c #1A3308",
"P+	c #494704",
"Q+	c #1E0229",
"R+	c #5802AE",
"S+	c #7602FC",
"T+	c #600287",
"U+	c #878704",
"V+	c #8A8A04",
"W+	c #4C4C04",
"X+	c #224B0C",
"Y+	c #620295",
"Z+	c #7502FC",
"`+	c #5802A7",
" @	c #170222",
".@	c #0C3108",
"+@	c #110229",
"@@	c #5902AE",
"#@	c #8602FC",
"$@	c #320287",
"%@	c #707004",
"&@	c #818104",
"*@	c #20490C",
"=@	c #400295",
"-@	c #2E0282",
";@	c #040215",
">@	c #113F0B",
",@	c #1A0229",
"'@	c #7C02FC",
")@	c #510287",
"!@	c #2B2904",
"~@	c #979704",
"{@	c #2F2E04",
"]@	c #16500F",
"^@	c #5A295A",
"/@	c #7D02D2",
"(@	c #26024C",
"_@	c #5D0204",
":@	c #E40204",
"<@	c #CA0204",
"[@	c #0F0204",
"}@	c #1C440B",
"|@	c #787804",
"1@	c #565517",
"2@	c #5102CB",
"3@	c #0B2C53",
"4@	c #313E07",
"5@	c #BCBC04",
"6@	c #4F024F",
"7@	c #830226",
"8@	c #E00204",
"9@	c #C70204",
"0@	c #4E0204",
"a@	c #070204",
"b@	c #191704",
"c@	c #C7C704",
"d@	c #D9DB04",
"e@	c #58582D",
"f@	c #040248",
"g@	c #0B2C07",
"h@	c #5A6207",
"i@	c #D2D404",
"j@	c #D70204",
"k@	c #950204",
"l@	c #DD0204",
"m@	c #990204",
"n@	c #130204",
"o@	c #04028D",
"p@	c #8D028D",
"q@	c #131104",
"r@	c #999704",
"s@	c #D7D904",
"t@	c #959604",
"u@	c #D1D304",
"v@	c #C6C604",
"w@	c #232104",
"x@	c #810204",
"y@	c #380204",
"z@	c #090291",
"A@	c #9B02F6",
"B@	c #5602ED",
"C@	c #8B8904",
"D@	c #C0C004",
"E@	c #C5C504",
"F@	c #8D8C04",
"G@	c #C00204",
"H@	c #2A0204",
"I@	c #040294",
"J@	c #9E02F3",
"K@	c #5202FC",
"L@	c #08069E",
"M@	c #393704",
"N@	c #8C8A04",
"O@	c #A7A604",
"P@	c #8E8C04",
"Q@	c #848204",
"R@	c #E60204",
"S@	c #A00204",
"T@	c #8C0204",
"U@	c #220204",
"V@	c #540284",
"W@	c #4302A0",
"X@	c #6302A0",
"Y@	c #4002A0",
"Z@	c #5A0299",
"`@	c #090754",
" #	c #A09F04",
".#	c #184C0E",
"+#	c #1E0204",
"@#	c #940204",
"##	c #090204",
"$#	c #16026D",
"%#	c #630284",
"&#	c #1F0284",
"*#	c #680284",
"=#	c #240284",
"-#	c #5A0280",
";#	c #3F3D04",
">#	c #18500F",
",#	c #174B0E",
"'#	c #092412",
")#	c #110213",
"!#	c #040213",
"~#	c #120213",
"{#	c #050213",
"]#	c #100213",
"^#	c #0B2A12",
"/#	c #17490D",
"                                                                                                                                ",
"                                                                                                                                ",
"                                                                                                                                ",
"                                                                                                                                ",
"                                                                                                                                ",
"                                                                                                                                ",
"                                                                                                                                ",
"                                                                                                                                ",
"                                                                                                                                ",
"                                                                                                                                ",
"                                                                                                                                ",
"                                                                                                                                ",
"                                                                                                                                ",
"                                                                                                                                ",
"                                                                                                                                ",
"                                                                                                                                ",
"                                  . . + @ @ @ # . . . . . . $ @ @ @ . . . + @ @ @ @ + . . . . . .                               ",
"                                  . . % & * = - @ . . . . ; > * , ' . + ) ! * * * ~ { ) # . . . .                               ",
"                                  . . % ] ^ / ( _ . . . . : < ^ [ ' + } | 1 2 < < 3 1 4 5 # . . .                               ",
"                                  . . % ] ^ ^ 6 7 8 . . % 9 0 ^ a ' ) | b c d : : e / f g h . . .                               ",
"                                  . . % ] i j / k l . . m n ^ ^ [ ' ) | o p q . . _ r s 4 h . . .                               ",
"                                  . . % ] / t u v w x y z A / B C ' ) | o D E F F G q q q x . . .                               ",
"                                  . . % ] / H I J K L q M ^ N O C ' @ P Q R S T U V L x . . . . .                               ",
"                                  . . % ] / ( W X Y Z `  .v ..+.C ' . 8 _ @.#.#.S $.K w x . . . .                               ",
"                                  . . % ] / ( %.p &.*.I ^ ] %.+.C ' @ _ _ G l l =.X J -.;.) . . .                               ",
"                                  . . % ] / ( : >.,.I '.).!.~.+.C ' ) = {.].^.. /.(._.:.g h . . .                               ",
"                                  . . % ] / ( <.l #.u [.}.h |.+.C ' ) | ^ M 1.q q 2.3.'.4.h . . .                               ",
"                                  . . % ] / ( <.x @.5.Q 6.@ |.+.7.' # 8.9.0.M M M a.a.b.c.@ . . .                               ",
"                                  . ; d.e.f.g.h.: i.j., k.<.l.m.n.o.: p.q.] ] ] ] ] r.s.@ . . . .                               ",
"                                  . ) t.u.u.u.u.u.u.u.v.w.x.y.z.A.B.C.D.E.F.F.F.F.F.F.G.|./.. . .                               ",
"                                  . ) H.I.I.I.I.I.I.J.K.L.M.N.O.P.Q.R.S.T.U.U.U.U.U.U.V.W.X.% . .                               ",
"                                  . ) H.I.I.I.I.I.I.Y.Z.`. +.+P.++@+#+$+U.U.U.U.U.U.U.U.U.%+&+8 .                               ",
"                                  . ) H.I.I.*+=+=+-+;+>+,+'+)+!+%.~+{+U.]+^+/+(+_+:+<+[+}+|+1+) .                               ",
"                                  . ) H.I.I.2+3+3+4+5+6+7+8+u.I.!+9+{+U.0+a+b+c+d+l G e+f+f+g+8 .                               ",
"                                  . ) H.I.I.h+i+|.j+k+l+m+n+u.I.!+o+p+q+0+r+s+t+u+v+% w+|.|.x . .                               ",
"                                  . ) H.I.I.h+<.. _ x+y+z+A+u.I.!+$ B+C+D+E+b+F+G+H+I+J+h @ . . .                               ",
"                                  . ) H.I.I.h+<.. _ K+L+M+N+u.I.!+. ; O+P+Q+R+S+T+U+U.V+W+X+@ . .                               ",
"                                  . ) H.I.I.h+<.. _ Y+Z+`+ @u.I.!+. . ) .@+@@@#@$@%@q+U.U.&@*@# .                               ",
"                                  . ) H.I.I.h+<.. _ =@#@-@;@u.I.!+. $ L >@,@R+'@)@!@~@q+U.U.{@) .                               ",
"                                  . ) H.I.I.h+<.. ]@^@/@(@_@:@<@[@# }@|@|@1@$@2@3@_ 4@5@U.U.{@) .                               ",
"                                  . ) H.I.I.h+d._ _ d.6@7@8@9@0@a@>@b@c@U.d@e@f@g@_ h@i@U.U.{@) .                               ",
"                                  . ) H.I.I.j@k@k@k@k@k@l@I.m@n@o@p@q@r@U.U.s@t@t@t@u@U.U.v@w@) .                               ",
"                                  . ) H.I.I.I.I.I.I.I.I.I.x@y@z@A@B@q@C@D@U.U.U.U.U.U.U.E@F@1+) .                               ",
"                                  . ) H.I.I.I.I.I.I.I.I.G@H@I@J@K@`.L@M@N@O@E@U.U.U.U.E@P@Q@1+) .                               ",
"                                  . ) H.R@S@S@S@S@S@S@S@T@U@V@W@X@Y@Z@`@M@Q@F@ # # # #F@Q@M@.## .                               ",
"                                  . ) +#@#=+=+=+=+=+=+=+4+##$#%#&#*#=#-#`@M@Q@Q@Q@Q@Q@;#1+.## . .                               ",
"                                  . + >#n@n@n@n@n@n@n@n@,#) '#)#!#~#{#]#^#,#q@q@q@q@q@/#) # . . .                               ",
"                                  . . + @ @ @ @ @ @ @ @ + . $ @ @ @ @ @ $ + @ @ @ @ @ + . . . . .                               ",
"                                                                                                                                ",
"                                                                                                                                ",
"                                                                                                                                ",
"                                                                                                                                ",
"                                                                                                                                ",
"                                                                                                                                ",
"                                                                                                                                ",
"                                                                                                                                ",
"                                                                                                                                ",
"                                                                                                                                ",
"                                                                                                                                ",
"                                                                                                                                ",
"                                                                                                                                ",
"                                                                                                                                ",
"                                                                                                                                ",
"                                                                                                                                "};
